# xmcd
#
# Track frame offsets:
#	150
#	16641
#	35166
#	49759
#	69336
#	82643
#	102390
#	123017
#	143055
#	168218
#
# Disc length: 2519 seconds
#
# Revision: 0
# Processed by: cddbd v1.5.1PL2 Copyright (c) Steve Scherf et al.
# Submitted via: dBpowerAMP V4.0
#
DISCID=6f09d50a
DTITLE=Rascal Flats - Feels Like Today
DYEAR=1900
DGENRE=Country
TTITLE0=Heres to you
TTITLE1=2
TTITLE2=3
TTITLE3=4
TTITLE4=5
TTITLE5=6
TTITLE6=7
TTITLE7=8
TTITLE8=9
TTITLE9=10
EXTD=
EXTT0=
EXTT1=
EXTT2=
EXTT3=
EXTT4=
EXTT5=
EXTT6=
EXTT7=
EXTT8=
EXTT9=
PLAYORDER=
